<?xml version="1.0" encoding="utf-8"?>
<!-- Generator: Adobe Illustrator 15.1.0, SVG Export Plug-In . SVG Version: 6.00 Build 0)  -->
<!DOCTYPE svg PUBLIC "-//W3C//DTD SVG 1.1//EN" "http://www.w3.org/Graphics/SVG/1.1/DTD/svg11.dtd">
<svg version="1.1" id="Ebene_1" xmlns="http://www.w3.org/2000/svg" xmlns:xlink="http://www.w3.org/1999/xlink" x="0px" y="0px"
	 width="205.593px" height="175.593px" viewBox="-349.803 -286.134 160.288 140.766"
	 enable-background="new -545.18 -286.438 549.514 205.593" xml:space="preserve">
<g>	
	<path fill="#E84036" d="M-296.736-154.119c0.475-58.602,48.14-105.96,106.848-105.96h0.601l-0.063,6.938h-0.55
		c-54.896,0-99.452,44.284-99.896,99.078L-296.736-154.119z"/>
	<path fill="none" stroke="#010202" stroke-width="0.215" stroke-miterlimit="3.864" d="M-296.736-154.119
		c0.475-58.602,48.14-105.96,106.848-105.96h0.601l-0.063,6.938h-0.55c-54.896,0-99.452,44.284-99.896,99.078L-296.736-154.119z"/>
	<path fill="#FECB0D" d="M-281.745-154.125c0.475-50.327,41.432-90.969,91.864-90.969l0.6,0.006l-0.075,6.938l-0.544-0.007
		c-46.622,0-84.469,37.573-84.907,84.093L-281.745-154.125z"/>
	<path fill="none" stroke="#010202" stroke-width="0.215" stroke-miterlimit="3.864" d="M-281.745-154.125
		c0.475-50.327,41.432-90.969,91.864-90.969l0.6,0.006l-0.075,6.938l-0.544-0.007c-46.622,0-84.469,37.573-84.907,84.093
		L-281.745-154.125z"/>
	<path fill="#0F7CC1" d="M-266.721-154.132c0.477-42.022,34.688-75.938,76.819-75.938l0.563-0.007l0.044,6.945h-0.601
		c-38.322,0-69.449,30.853-69.888,69.076L-266.721-154.132z"/>
	<path fill="none" stroke="#010202" stroke-width="0.215" stroke-miterlimit="3.864" d="M-266.721-154.132
		c0.477-42.022,34.688-75.938,76.819-75.938l0.563-0.007l0.044,6.945h-0.601c-38.322,0-69.449,30.853-69.888,69.076
		L-266.721-154.132z"/>
	<path fill="#193153" d="M-337.836-154.288h134.928l-67.464-117.852L-337.836-154.288z M-349.803-147.348l79.431-138.766
		l79.429,138.766H-349.803z"/>
	<path fill="none" stroke="#193153" stroke-width="0.322" stroke-miterlimit="3.864" d="M-337.836-154.288h134.928l-67.464-117.852
		L-337.836-154.288z M-349.803-147.348l79.431-138.766l79.429,138.766H-349.803z"/>
</g>
</svg>
